<svg width="27" height="27" viewBox="0 0 27 27" fill="none" xmlns="http://www.w3.org/2000/svg">
<path d="M5.39493 3.58986L6.11918 3.22408L4.72794 2.2424L5.39493 3.58986Z" fill="#4088FF"/>
<path d="M5.39493 3.58986C5.43495 3.67071 5.48406 3.74598 5.54094 3.81437L6.13459 3.2163L6.11918 3.22408L5.39493 3.58986Z" fill="#4088FF"/>
<path fill-rule="evenodd" clip-rule="evenodd" d="M5.74188 0.632978C5.32411 -0.210996 4.13176 -0.21099 3.714 0.632978L2.68488 2.71199L0.626651 3.75149C-0.208884 4.17348 -0.208884 5.37787 0.626652 5.79985L2.68488 6.83936L3.714 8.91837C4.13176 9.76234 5.32411 9.76234 5.74188 8.91837L6.771 6.83936L8.82923 5.79985C9.66476 5.37787 9.66476 4.17348 8.82923 3.75149L6.771 2.71199L5.74188 0.632978ZM4.06095 3.58986L4.72794 2.2424L6.11918 3.22408L6.13459 3.2163L5.54094 3.81437C5.63996 3.93341 5.76256 4.03157 5.9019 4.10195L7.23589 4.77567L5.9019 5.4494C5.68252 5.5602 5.50462 5.73989 5.39493 5.96149L4.72794 7.30895L4.06095 5.96149C3.99078 5.81974 3.89271 5.69514 3.77372 5.59475L3.19185 6.18096L3.18415 6.19652L3.48871 5.41644L2.21999 4.77567L3.55397 4.10195C3.77336 3.99115 3.95125 3.81146 4.06095 3.58986Z" fill="#4088FF"/>
<path d="M3.55397 5.4494L3.19185 6.18096L3.77372 5.59475C3.70669 5.5382 3.63303 5.48933 3.55397 5.4494Z" fill="#4088FF"/>
<path d="M3.19185 6.18096L3.55397 5.4494L3.48871 5.41644L3.18415 6.19652L3.19185 6.18096Z" fill="#4088FF"/>
<path fill-rule="evenodd" clip-rule="evenodd" d="M5.74188 18.0816C5.32411 17.2377 4.13176 17.2377 3.714 18.0816L2.68488 20.1606L0.626651 21.2001C-0.208884 21.6221 -0.208884 22.8265 0.626652 23.2485L2.68488 24.288L2.61246 24.1417C2.65933 24.2364 2.73525 24.3132 2.82888 24.3607L2.68488 24.288L3.714 26.367C4.13176 27.211 5.32411 27.211 5.74188 26.367L6.771 24.288L6.62699 24.3607C6.72063 24.3132 6.79655 24.2364 6.84342 24.1417L6.771 24.288L8.82923 23.2485C9.66476 22.8265 9.66476 21.6221 8.82923 21.2001L6.771 20.1606L6.84342 20.307C6.79641 20.212 6.72016 20.135 6.62615 20.0875L6.771 20.1606L5.74188 18.0816ZM4.72794 19.6911L4.06095 21.0385C3.95125 21.2601 3.77336 21.4398 3.55397 21.5506L2.21999 22.2243L3.55397 22.8981C3.77336 23.0089 3.95125 23.1885 4.06095 23.4101L4.72794 24.7576L5.39493 23.4101C5.50462 23.1885 5.68251 23.0089 5.9019 22.8981L7.23589 22.2243L5.9019 21.5506C5.68252 21.4398 5.50463 21.2601 5.39493 21.0385L4.72794 19.6911Z" fill="#4088FF"/>
<path d="M14.9959 10.7743L16.1678 8.40677L15.8113 4.25004L13.1772 9.57132L13.9724 11.6082L14.3682 11.4083C14.6398 11.2712 14.8601 11.0487 14.9959 10.7743Z" fill="#4088FF"/>
<path d="M19.7651 15.5916C19.4934 15.7288 19.2732 15.9513 19.1374 16.2257L17.2576 20.0233L18.322 22.7499L20.9561 17.4287L26.2241 14.768C27.2586 14.2456 27.2586 12.7544 26.2241 12.232L20.9561 9.57132L18.322 4.25004C17.8048 3.20512 16.3285 3.20513 15.8113 4.25004L16.1678 8.40677L17.0666 6.59102L19.1374 10.7743C19.2732 11.0487 19.4935 11.2712 19.7651 11.4083L23.9066 13.5L19.7651 15.5916Z" fill="#4088FF"/>
<path d="M17.3563 22.2622L18.322 22.7499L17.2576 20.0233L17.1781 20.1839L17.3563 22.2622Z" fill="#4088FF"/>
<path d="M14.3682 15.5916L10.2267 13.5L13.9724 11.6082L13.1772 9.57132L7.90915 12.232C6.87469 12.7544 6.87468 14.2456 7.90916 14.768L13.1772 17.4287L15.8113 22.7499C16.3285 23.7949 17.8048 23.7949 18.322 22.7499L17.3563 22.2622L17.1781 20.1839L17.1621 20.2161L17.0666 20.409L14.9959 16.2257C14.8601 15.9513 14.6399 15.7288 14.3682 15.5916Z" fill="#4088FF"/>
</svg>
