<svg width="4000" height="59" viewBox="0 0 720 59" fill="none" xmlns="http://www.w3.org/2000/svg">
    <path d="M-180 5L-141.213 43.787C-129.497 55.503 -110.503 55.503 -98.787 43.787L-81.213 26.213C-69.497 14.497 -50.503 14.497 -38.787 26.213L-21.213 43.787C-9.497 55.503 9.497 55.503 21.213 43.787L38.787 26.213C50.503 14.497 69.497 14.497 81.213 26.213L98.787 43.787C110.503 55.503 129.497 55.503 141.213 43.787L158.787 26.213C170.503 14.497 189.497 14.497 201.213 26.213L218.787 43.787C230.503 55.503 249.497 55.503 261.213 43.787L278.787 26.213C290.503 14.497 309.497 14.497 321.213 26.213L338.787 43.787C350.503 55.503 369.497 55.503 381.213 43.787L398.787 26.213C410.503 14.497 429.497 14.497 441.213 26.213L458.787 43.787C470.503 55.503 489.497 55.503 501.213 43.787L518.787 26.213C530.503 14.497 549.497 14.497 561.213 26.213L578.787 43.787C590.503 55.503 609.497 55.503 621.213 43.787L638.787 26.213C650.503 14.497 669.497 14.497 681.213 26.213L698.787 43.787C710.503 55.503 729.497 55.503 741.213 43.787L758.787 26.213C770.503 14.497 789.497 14.497 801.213 26.213L818.787 43.787C830.503 55.503 849.497 55.503 861.213 43.787L878.787 26.213C890.503 14.497 909.497 14.497 921.213 26.213L938.787 43.787C950.503 55.503 969.497 55.503 981.213 43.787L998.787 26.213C1010.503 14.497 1029.497 14.497 1041.213 26.213L1058.787 43.787C1070.503 55.503 1089.497 55.503 1101.213 43.787L1118.787 26.213C1130.503 14.497 1149.497 14.497 1161.213 26.213L1178.787 43.787C1190.503 55.503 1209.497 55.503 1221.213 43.787L1238.787 26.213C1250.503 14.497 1269.497 14.497 1281.213 26.213L1298.787 43.787C1310.503 55.503 1329.497 55.503 1341.213 43.787L1358.787 26.213C1370.503 14.497 1389.497 14.497 1401.213 26.213L1418.787 43.787C1430.503 55.503 1449.497 55.503 1461.213 43.787L1478.787 26.213C1490.503 14.497 1509.497 14.497 1521.213 26.213L1538.787 43.787C1550.503 55.503 1569.497 55.503 1581.213 43.787L1598.787 26.213C1610.503 14.497 1629.497 14.497 1641.213 26.213L1658.787 43.787C1670.503 55.503 1689.497 55.503 1701.213 43.787L1718.787 26.213C1730.503 14.497 1749.497 14.497 1761.213 26.213L1778.787 43.787C1790.503 55.503 1809.497 55.503 1821.213 43.787L1838.787 26.213C1850.503 14.497 1869.497 14.497 1881.213 26.213L1898.787 43.787C1910.503 55.503 1929.497 55.503 1941.213 43.787L1958.787 26.213C1970.503 14.497 1989.497 14.497 2001.213 26.213L2018.787 43.787C2030.503 55.503 2049.497 55.503 2061.213 43.787L2078.787 26.213C2090.503 14.497 2109.497 14.497 2121.213 26.213L2138.787 43.787C2150.503 55.503 2169.497 55.503 2181.213 43.787L2198.787 26.213C2210.503 14.497 2229.497 14.497 2241.213 26.213L2258.7 43.697C2270.45 55.448 2289.52 55.416 2301.26 43.663C2320 24.912 2340 5 2340 5" stroke="#477BFF" stroke-opacity="0.03" stroke-width="12"/>
</svg>
