<svg width="310" height="310" viewBox="0 0 310 310" fill="none" xmlns="http://www.w3.org/2000/svg">
<g filter="url(#filter0_d_1_941)">
<rect x="120" y="120" width="70" height="70" rx="35" fill="white"/>
<rect x="120.5" y="120.5" width="69" height="69" rx="34.5" stroke="#4B1C97"/>
</g>

<g  transform="translate(140, 140) ">
<svg width="30" height="30" viewBox="0 0 30 30" fill="none" xmlns="http://www.w3.org/2000/svg">
<path d="M13.9688 25H9.78125C9.51042 25.7292 9.05729 26.3281 8.42188 26.7969C7.78646 27.2656 7.0625 27.5 6.25 27.5C5.20833 27.5 4.32292 27.1354 3.59375 26.4063C2.86458 25.6771 2.5 24.7917 2.5 23.75C2.5 22.9375 2.73438 22.2135 3.20312 21.5781C3.67188 20.9427 4.27083 20.4896 5 20.2188V9.78125C4.27083 9.51042 3.67188 9.05729 3.20312 8.42188C2.73438 7.78646 2.5 7.0625 2.5 6.25C2.5 5.20833 2.86458 4.32292 3.59375 3.59375C4.32292 2.86458 5.20833 2.5 6.25 2.5C7.0625 2.5 7.78646 2.73438 8.42188 3.20313C9.05729 3.67188 9.51042 4.27083 9.78125 5H13.9688L12.5625 3.59375C12.3333 3.36458 12.2188 3.07812 12.2188 2.73438C12.2188 2.39063 12.3333 2.09375 12.5625 1.84375C12.8125 1.59375 13.1094 1.46875 13.4531 1.46875C13.7969 1.46875 14.0938 1.59375 14.3438 1.84375L17.875 5.375C18.125 5.625 18.25 5.91667 18.25 6.25C18.25 6.58333 18.125 6.875 17.875 7.125L14.3125 10.6875C14.1875 10.8125 14.0521 10.9062 13.9062 10.9688C13.7604 11.0312 13.6094 11.0573 13.4531 11.0469C13.2969 11.0365 13.1406 11 12.9844 10.9375C12.8281 10.875 12.6875 10.7812 12.5625 10.6562C12.3333 10.4062 12.2135 10.1146 12.2031 9.78125C12.1927 9.44792 12.3125 9.15625 12.5625 8.90625L13.9688 7.5H9.78125C9.59375 8.04167 9.30208 8.51042 8.90625 8.90625C8.51042 9.30208 8.04167 9.59375 7.5 9.78125V20.2188C8.04167 20.4062 8.51042 20.6979 8.90625 21.0938C9.30208 21.4896 9.59375 21.9583 9.78125 22.5H13.9688L12.5625 21.0938C12.3333 20.8646 12.2188 20.5781 12.2188 20.2344C12.2188 19.8906 12.3333 19.5938 12.5625 19.3438C12.8125 19.0938 13.1094 18.9688 13.4531 18.9688C13.7969 18.9688 14.0938 19.0938 14.3438 19.3438L17.875 22.875C18.125 23.125 18.25 23.4167 18.25 23.75C18.25 24.0833 18.125 24.375 17.875 24.625L14.3125 28.1875C14.1875 28.3125 14.0521 28.4063 13.9062 28.4688C13.7604 28.5313 13.6094 28.5573 13.4531 28.5469C13.2969 28.5365 13.1406 28.5 12.9844 28.4375C12.8281 28.375 12.6875 28.2813 12.5625 28.1563C12.3333 27.9063 12.2135 27.6146 12.2031 27.2813C12.1927 26.9479 12.3125 26.6563 12.5625 26.4063L13.9688 25ZM23.75 27.5C22.7083 27.5 21.8229 27.1354 21.0938 26.4063C20.3646 25.6771 20 24.7917 20 23.75C20 22.9167 20.2344 22.1823 20.7031 21.5469C21.1719 20.9115 21.7708 20.4688 22.5 20.2188V9.78125C21.7708 9.53125 21.1719 9.08854 20.7031 8.45313C20.2344 7.81771 20 7.08333 20 6.25C20 5.20833 20.3646 4.32292 21.0938 3.59375C21.8229 2.86458 22.7083 2.5 23.75 2.5C24.7917 2.5 25.6771 2.86458 26.4062 3.59375C27.1354 4.32292 27.5 5.20833 27.5 6.25C27.5 7.08333 27.2656 7.81771 26.7969 8.45313C26.3281 9.08854 25.7292 9.53125 25 9.78125V20.2188C25.7292 20.4896 26.3281 20.9427 26.7969 21.5781C27.2656 22.2135 27.5 22.9375 27.5 23.75C27.5 24.7917 27.1354 25.6771 26.4062 26.4063C25.6771 27.1354 24.7917 27.5 23.75 27.5ZM6.25 25C6.60417 25 6.90104 24.8802 7.14062 24.6406C7.38021 24.401 7.5 24.1042 7.5 23.75C7.5 23.3958 7.38021 23.099 7.14062 22.8594C6.90104 22.6198 6.60417 22.5 6.25 22.5C5.89583 22.5 5.59896 22.6198 5.35938 22.8594C5.11979 23.099 5 23.3958 5 23.75C5 24.1042 5.11979 24.401 5.35938 24.6406C5.59896 24.8802 5.89583 25 6.25 25ZM23.75 25C24.1042 25 24.401 24.8802 24.6406 24.6406C24.8802 24.401 25 24.1042 25 23.75C25 23.3958 24.8802 23.099 24.6406 22.8594C24.401 22.6198 24.1042 22.5 23.75 22.5C23.3958 22.5 23.099 22.6198 22.8594 22.8594C22.6198 23.099 22.5 23.3958 22.5 23.75C22.5 24.1042 22.6198 24.401 22.8594 24.6406C23.099 24.8802 23.3958 25 23.75 25ZM6.25 7.5C6.60417 7.5 6.90104 7.38021 7.14062 7.14062C7.38021 6.90104 7.5 6.60417 7.5 6.25C7.5 5.89583 7.38021 5.59896 7.14062 5.35938C6.90104 5.11979 6.60417 5 6.25 5C5.89583 5 5.59896 5.11979 5.35938 5.35938C5.11979 5.59896 5 5.89583 5 6.25C5 6.60417 5.11979 6.90104 5.35938 7.14062C5.59896 7.38021 5.89583 7.5 6.25 7.5ZM23.75 7.5C24.1042 7.5 24.401 7.38021 24.6406 7.14062C24.8802 6.90104 25 6.60417 25 6.25C25 5.89583 24.8802 5.59896 24.6406 5.35938C24.401 5.11979 24.1042 5 23.75 5C23.3958 5 23.099 5.11979 22.8594 5.35938C22.6198 5.59896 22.5 5.89583 22.5 6.25C22.5 6.60417 22.6198 6.90104 22.8594 7.14062C23.099 7.38021 23.3958 7.5 23.75 7.5Z" fill="#4B1C97"/>
</svg>




</g>




<defs>
<filter id="filter0_d_1_941" x="0" y="0" width="310" height="310" filterUnits="userSpaceOnUse" color-interpolation-filters="sRGB">
<feFlood flood-opacity="0" result="BackgroundImageFix"/>
<feColorMatrix in="SourceAlpha" type="matrix" values="0 0 0 0 0 0 0 0 0 0 0 0 0 0 0 0 0 0 127 0" result="hardAlpha"/>
<feOffset/>
<feGaussianBlur stdDeviation="60"/>
<feComposite in2="hardAlpha" operator="out"/>
<feColorMatrix type="matrix" values="0 0 0 0 0.294118 0 0 0 0 0.109804 0 0 0 0 0.592157 0 0 0 0.25 0"/>
<feBlend mode="normal" in2="BackgroundImageFix" result="effect1_dropShadow_1_941"/>
<feBlend mode="normal" in="SourceGraphic" in2="effect1_dropShadow_1_941" result="shape"/>
</filter>
</defs>
</svg>
