<svg width="87" height="30" viewBox="0 0 87 30" fill="none" xmlns="http://www.w3.org/2000/svg">
<path d="M0.656006 23.0001V0.600098H10.832C13.264 0.600098 15.408 1.06943 17.264 2.0081C19.12 2.92543 20.5707 4.2161 21.616 5.8801C22.6613 7.5441 23.184 9.51743 23.184 11.8001C23.184 14.0614 22.6613 16.0348 21.616 17.7201C20.5707 19.3841 19.12 20.6854 17.264 21.6241C15.408 22.5414 13.264 23.0001 10.832 23.0001H0.656006ZM5.84001 18.7441H10.576C12.0693 18.7441 13.36 18.4668 14.448 17.9121C15.5573 17.3361 16.4107 16.5254 17.008 15.4801C17.6267 14.4348 17.936 13.2081 17.936 11.8001C17.936 10.3708 17.6267 9.1441 17.008 8.1201C16.4107 7.07477 15.5573 6.27477 14.448 5.7201C13.36 5.1441 12.0693 4.8561 10.576 4.8561H5.84001V18.7441Z" fill="#393939"/>
<path fill-rule="evenodd" clip-rule="evenodd" d="M72.071 28.8561C73.5857 29.2614 75.1537 29.4641 76.775 29.4641C79.8897 29.4641 82.279 28.7068 83.943 27.1921C85.607 25.6774 86.439 23.3201 86.439 20.1201V15.5C86.404 9.75181 83.9539 7.12492 81.703 6.11002V7.9712C81.1885 7.31511 80.5698 6.79941 79.847 6.4241C78.9738 5.9539 77.9948 5.66876 76.9101 5.56869C76.6168 5.54163 76.3158 5.5281 76.007 5.5281C74.407 5.5281 72.9563 5.86943 71.655 6.5521C70.375 7.23477 69.3403 8.20543 68.551 9.4641C67.783 10.7014 67.399 12.1628 67.399 13.8481C67.399 15.5121 67.783 16.9734 68.551 18.2321C69.3403 19.4694 70.375 20.4401 71.655 21.1441C72.9563 21.8268 74.407 22.1681 76.007 22.1681C77.4577 22.1681 78.7377 21.8694 79.847 21.2721C80.4537 20.9454 80.9871 20.5262 81.447 20.0144V20.7601C81.447 22.3174 81.0417 23.4908 80.231 24.2801C79.4417 25.0694 78.1617 25.4641 76.391 25.4641C75.303 25.4641 74.1937 25.2828 73.063 24.9201C71.9537 24.5788 71.0363 24.1094 70.311 23.5121L68.327 27.0961C69.3297 27.8854 70.5777 28.4721 72.071 28.8561ZM79.335 17.5601C78.6523 17.9014 77.8737 18.0721 76.999 18.0721C76.1243 18.0721 75.3457 17.9014 74.663 17.5601C73.9803 17.1974 73.4363 16.6961 73.031 16.0561C72.647 15.4161 72.455 14.6801 72.455 13.8481C72.455 12.9948 72.647 12.2588 73.031 11.6401C73.4363 11.0001 73.9803 10.5094 74.663 10.1681C75.3457 9.80543 76.1243 9.6241 76.999 9.6241C77.8737 9.6241 78.6523 9.80543 79.335 10.1681C80.0177 10.5094 80.551 11.0001 80.935 11.6401C81.319 12.2588 81.511 12.9948 81.511 13.8481C81.511 14.6801 81.319 15.4161 80.935 16.0561C80.551 16.6961 80.0177 17.1974 79.335 17.5601Z" fill="#393939"/>
<path fill-rule="evenodd" clip-rule="evenodd" d="M81.703 6.11002V7.9712C81.1885 7.31511 80.5698 6.79941 79.847 6.4241C78.9738 5.9539 77.9948 5.66876 76.9101 5.56869H79.3065H79.3887C80.0396 5.57492 80.8572 5.72867 81.703 6.11002Z" fill="#393939"/>
<path fill-rule="evenodd" clip-rule="evenodd" d="M79.3065 5.56869C79.3336 5.56842 79.361 5.56842 79.3887 5.56869H79.3065Z" fill="#393939"/>
<path d="M76.007 5.5281C76.3158 5.5281 76.6168 5.54163 76.9101 5.56869H79.3065C79.3336 5.56842 79.361 5.56842 79.3887 5.56869L78 5.5281H76.007Z" fill="#393939"/>
<path fill-rule="evenodd" clip-rule="evenodd" d="M34.9335 23.2561C33.0988 23.2561 31.4668 22.8721 30.0375 22.1041C28.6295 21.3361 27.5095 20.2908 26.6775 18.9681C25.8668 17.6241 25.4615 16.0988 25.4615 14.3921C25.4615 12.6641 25.8668 11.1388 26.6775 9.8161C27.5095 8.4721 28.6295 7.42676 30.0375 6.6801C31.4668 5.9121 33.0988 5.5281 34.9335 5.5281C36.7468 5.5281 38.3682 5.9121 39.7975 6.6801C41.2268 7.42676 42.3468 8.46143 43.1575 9.7841C43.9682 11.1068 44.3735 12.6428 44.3735 14.3921C44.3735 16.0988 43.9682 17.6241 43.1575 18.9681C42.3468 20.2908 41.2268 21.3361 39.7975 22.1041C38.3682 22.8721 36.7468 23.2561 34.9335 23.2561ZM37.1735 18.5841C36.5122 18.9681 35.7655 19.1601 34.9335 19.1601C34.1015 19.1601 33.3548 18.9681 32.6935 18.5841C32.0322 18.2001 31.4988 17.6561 31.0935 16.9521C30.7095 16.2268 30.5175 15.3734 30.5175 14.3921C30.5175 13.3894 30.7095 12.5361 31.0935 11.8321C31.4988 11.1281 32.0322 10.5841 32.6935 10.2001C33.3548 9.8161 34.1015 9.6241 34.9335 9.6241C35.7655 9.6241 36.5122 9.8161 37.1735 10.2001C37.8348 10.5841 38.3575 11.1281 38.7415 11.8321C39.1255 12.5361 39.3175 13.3894 39.3175 14.3921C39.3175 15.3734 39.1255 16.2268 38.7415 16.9521C38.3575 17.6561 37.8348 18.2001 37.1735 18.5841Z" fill="#393939"/>
<path fill-rule="evenodd" clip-rule="evenodd" d="M55.9023 23.2561C54.0676 23.2561 52.4356 22.8721 51.0063 22.1041C49.5983 21.3361 48.4783 20.2908 47.6463 18.9681C46.8356 17.6241 46.4303 16.0988 46.4303 14.3921C46.4303 12.6641 46.8356 11.1388 47.6463 9.8161C48.4783 8.4721 49.5983 7.42676 51.0063 6.6801C52.4356 5.9121 54.0676 5.5281 55.9023 5.5281C57.7156 5.5281 59.3369 5.9121 60.7663 6.6801C62.1956 7.42676 63.3156 8.46143 64.1263 9.7841C64.9369 11.1068 65.3423 12.6428 65.3423 14.3921C65.3423 16.0988 64.9369 17.6241 64.1263 18.9681C63.3156 20.2908 62.1956 21.3361 60.7663 22.1041C59.3369 22.8721 57.7156 23.2561 55.9023 23.2561ZM58.1423 18.5841C57.4809 18.9681 56.7343 19.1601 55.9023 19.1601C55.0703 19.1601 54.3236 18.9681 53.6623 18.5841C53.0009 18.2001 52.4676 17.6561 52.0623 16.9521C51.6783 16.2268 51.4863 15.3734 51.4863 14.3921C51.4863 13.3894 51.6783 12.5361 52.0623 11.8321C52.4676 11.1281 53.0009 10.5841 53.6623 10.2001C54.3236 9.8161 55.0703 9.6241 55.9023 9.6241C56.7343 9.6241 57.4809 9.8161 58.1423 10.2001C58.8036 10.5841 59.3263 11.1281 59.7103 11.8321C60.0943 12.5361 60.2863 13.3894 60.2863 14.3921C60.2863 15.3734 60.0943 16.2268 59.7103 16.9521C59.3263 17.6561 58.8036 18.2001 58.1423 18.5841Z" fill="#393939"/>
</svg>
