<svg width="310" height="310" viewBox="0 0 310 310" fill="none" xmlns="http://www.w3.org/2000/svg">
<g filter="url(#filter0_d_1_940)">
<rect x="120" y="120" width="70" height="70" rx="35" fill="white"/>
<rect x="120.5" y="120.5" width="69" height="69" rx="34.5" stroke="#840B87"/>
</g>




<g transform="translate(143, 143) ">

<svg width="24" height="25" viewBox="0 0 24 25" fill="none" xmlns="http://www.w3.org/2000/svg">
<path d="M10.825 22.9166C10.375 22.9166 9.98748 22.7604 9.66248 22.4479C9.33748 22.1354 9.14165 21.7535 9.07498 21.3021L8.84998 19.5833C8.63331 19.4965 8.42915 19.3923 8.23748 19.2708C8.04581 19.1493 7.85831 19.0191 7.67498 18.8802L6.12498 19.5573C5.70831 19.7482 5.29165 19.7656 4.87498 19.6094C4.45831 19.4531 4.13331 19.1753 3.89998 18.776L2.72498 16.6406C2.49165 16.2413 2.42498 15.816 2.52498 15.3646C2.62498 14.9132 2.84998 14.5399 3.19998 14.2448L4.52498 13.2031C4.50831 13.0816 4.49998 12.9644 4.49998 12.8515V12.1484C4.49998 12.0356 4.50831 11.9184 4.52498 11.7969L3.19998 10.7552C2.84998 10.46 2.62498 10.0868 2.52498 9.6354C2.42498 9.18401 2.49165 8.75866 2.72498 8.35935L3.89998 6.22394C4.13331 5.82463 4.45831 5.54685 4.87498 5.3906C5.29165 5.23435 5.70831 5.25172 6.12498 5.44269L7.67498 6.11977C7.85831 5.98088 8.04998 5.85067 8.24998 5.72915C8.44998 5.60762 8.64998 5.50345 8.84998 5.41665L9.07498 3.6979C9.14165 3.24651 9.33748 2.86456 9.66248 2.55206C9.98748 2.23956 10.375 2.08331 10.825 2.08331H13.175C13.625 2.08331 14.0125 2.23956 14.3375 2.55206C14.6625 2.86456 14.8583 3.24651 14.925 3.6979L15.15 5.41665C15.3666 5.50345 15.5708 5.60762 15.7625 5.72915C15.9541 5.85067 16.1416 5.98088 16.325 6.11977L17.875 5.44269C18.2916 5.25172 18.7083 5.23435 19.125 5.3906C19.5416 5.54685 19.8666 5.82463 20.1 6.22394L21.275 8.35935C21.5083 8.75866 21.575 9.18401 21.475 9.6354C21.375 10.0868 21.15 10.46 20.8 10.7552L19.475 11.7969C19.4916 11.9184 19.5 12.0356 19.5 12.1484V12.8515C19.5 12.9644 19.4833 13.0816 19.45 13.2031L20.775 14.2448C21.125 14.5399 21.35 14.9132 21.45 15.3646C21.55 15.816 21.4833 16.2413 21.25 16.6406L20.05 18.776C19.8166 19.1753 19.4916 19.4531 19.075 19.6094C18.6583 19.7656 18.2416 19.7482 17.825 19.5573L16.325 18.8802C16.1416 19.0191 15.95 19.1493 15.75 19.2708C15.55 19.3923 15.35 19.4965 15.15 19.5833L14.925 21.3021C14.8583 21.7535 14.6625 22.1354 14.3375 22.4479C14.0125 22.7604 13.625 22.9166 13.175 22.9166H10.825ZM11 20.8333H12.975L13.325 18.0729C13.8416 17.934 14.3208 17.73 14.7625 17.4609C15.2041 17.1918 15.6083 16.8663 15.975 16.4844L18.45 17.5521L19.425 15.7812L17.275 14.0885C17.3583 13.8455 17.4166 13.5894 17.45 13.3203C17.4833 13.0512 17.5 12.7778 17.5 12.5C17.5 12.2222 17.4833 11.9488 17.45 11.6797C17.4166 11.4106 17.3583 11.1545 17.275 10.9114L19.425 9.21873L18.45 7.4479L15.975 8.54165C15.6083 8.14234 15.2041 7.80814 14.7625 7.53904C14.3208 7.26994 13.8416 7.06595 13.325 6.92706L13 4.16665H11.025L10.675 6.92706C10.1583 7.06595 9.67915 7.26994 9.23748 7.53904C8.79581 7.80814 8.39165 8.13366 8.02498 8.5156L5.54998 7.4479L4.57498 9.21873L6.72498 10.8854C6.64165 11.1458 6.58331 11.4062 6.54998 11.6666C6.51665 11.9271 6.49998 12.2048 6.49998 12.5C6.49998 12.7778 6.51665 13.0469 6.54998 13.3073C6.58331 13.5677 6.64165 13.8281 6.72498 14.0885L4.57498 15.7812L5.54998 17.5521L8.02498 16.4583C8.39165 16.8576 8.79581 17.1918 9.23748 17.4609C9.67915 17.73 10.1583 17.934 10.675 18.0729L11 20.8333ZM12.05 16.1458C13.0166 16.1458 13.8416 15.7899 14.525 15.0781C15.2083 14.3663 15.55 13.5069 15.55 12.5C15.55 11.493 15.2083 10.6337 14.525 9.92185C13.8416 9.21005 13.0166 8.85415 12.05 8.85415C11.0666 8.85415 10.2375 9.21005 9.56248 9.92185C8.88748 10.6337 8.54998 11.493 8.54998 12.5C8.54998 13.5069 8.88748 14.3663 9.56248 15.0781C10.2375 15.7899 11.0666 16.1458 12.05 16.1458Z" fill="#840B87"/>
</svg>






</g>
<defs>
<filter id="filter0_d_1_940" x="0" y="0" width="310" height="310" filterUnits="userSpaceOnUse" color-interpolation-filters="sRGB">
<feFlood flood-opacity="0" result="BackgroundImageFix"/>
<feColorMatrix in="SourceAlpha" type="matrix" values="0 0 0 0 0 0 0 0 0 0 0 0 0 0 0 0 0 0 127 0" result="hardAlpha"/>
<feOffset/>
<feGaussianBlur stdDeviation="60"/>
<feComposite in2="hardAlpha" operator="out"/>
<feColorMatrix type="matrix" values="0 0 0 0 0.517647 0 0 0 0 0.0431373 0 0 0 0 0.529412 0 0 0 0.25 0"/>
<feBlend mode="normal" in2="BackgroundImageFix" result="effect1_dropShadow_1_940"/>
<feBlend mode="normal" in="SourceGraphic" in2="effect1_dropShadow_1_940" result="shape"/>
</filter>
</defs>
</svg>
