<svg width="310" height="310" viewBox="0 0 310 310" fill="none" xmlns="http://www.w3.org/2000/svg">
<g filter="url(#filter0_d_1_942)">
<rect x="120" y="120" width="70" height="70" rx="35" fill="white"/>
<rect x="120.5" y="120.5" width="69" height="69" rx="34.5" stroke="#FE8C39"/>
</g>

<g transform="translate(140, 140) ">

<svg width="28" height="28" viewBox="0 0 28 28" fill="none" xmlns="http://www.w3.org/2000/svg">
<path d="M10.8385 25.9066C10.3775 26.1032 9.84223 25.9282 9.58637 25.4973L8.03741 22.8885C7.89652 22.6512 7.66386 22.4827 7.39448 22.4229L4.47839 21.7748C3.98607 21.6654 3.65227 21.2066 3.69976 20.7045L3.98441 17.6953C4.01029 17.4217 3.92242 17.1495 3.74143 16.9426L1.74282 14.6585C1.41292 14.2815 1.41292 13.7185 1.74282 13.3415L3.74143 11.0574C3.92242 10.8505 4.01029 10.5783 3.98441 10.3047L3.69976 7.29553C3.65227 6.79344 3.98607 6.33457 4.47839 6.22516L7.39448 5.57714C7.66386 5.51728 7.89652 5.34877 8.03741 5.1115L9.58637 2.50271C9.84223 2.07179 10.3775 1.89681 10.8385 2.0934L13.6077 3.27437C13.8583 3.38124 14.1416 3.38124 14.3922 3.27437L17.1614 2.0934C17.6224 1.89681 18.1577 2.07179 18.4135 2.50271L19.9625 5.11149C20.1034 5.34877 20.3361 5.51728 20.6054 5.57714L23.5215 6.22516C24.0138 6.33457 24.3477 6.79344 24.3002 7.29553L24.0155 10.3047C23.9896 10.5783 24.0775 10.8505 24.2585 11.0574L26.2571 13.3415C26.587 13.7185 26.587 14.2815 26.2571 14.6585L24.2585 16.9426C24.0775 17.1495 23.9896 17.4217 24.0155 17.6953L24.3002 20.7045C24.3477 21.2066 24.0138 21.6654 23.5215 21.7748L20.6054 22.4229C20.3361 22.4827 20.1034 22.6512 19.9625 22.8885L18.4135 25.4973C18.1577 25.9282 17.6224 26.1032 17.1614 25.9066L14.3922 24.7256C14.1416 24.6188 13.8583 24.6188 13.6077 24.7256L10.8385 25.9066ZM10.5739 22.5284C10.8323 22.9562 11.367 23.1275 11.8259 22.9295L13.6077 22.1609C13.8582 22.0528 14.1421 22.0518 14.3934 22.1581L16.2231 22.9322C16.6864 23.1282 17.2231 22.9496 17.4765 22.5151L18.4504 20.8456C18.5885 20.609 18.8176 20.4393 19.0842 20.3763L21.0319 19.9159C21.5158 19.8016 21.8421 19.3491 21.7979 18.8538L21.6215 16.8777C21.5971 16.6046 21.6859 16.3335 21.8672 16.1278L23.1661 14.6533C23.496 14.2788 23.4993 13.7184 23.1737 13.34L21.8589 11.812C21.6827 11.6072 21.5968 11.3399 21.6209 11.0708L21.7966 9.10303C21.8414 8.60124 21.5059 8.14448 21.0137 8.03709L19.0869 7.6167C18.8186 7.55816 18.5862 7.39185 18.4442 7.1568L17.426 5.4716C17.1676 5.0438 16.633 4.87253 16.174 5.0705L14.3922 5.83912C14.1417 5.9472 13.8578 5.9482 13.6065 5.84187L11.7768 5.06776C11.3135 4.87177 10.7768 5.05038 10.5234 5.48486L9.55466 7.14551C9.41359 7.38735 9.1776 7.55897 8.90405 7.61865L6.98623 8.03709C6.49402 8.14448 6.15855 8.60125 6.20336 9.10303L6.37905 11.0708C6.40307 11.3399 6.31722 11.6072 6.14102 11.812L4.82617 13.34C4.50063 13.7184 4.5039 14.2788 4.83382 14.6533L6.13337 16.1285C6.31425 16.3338 6.40309 16.6043 6.37918 16.8769L6.20187 18.8982C6.1579 19.3995 6.49325 19.8554 6.98488 19.9626L8.913 20.3833C9.18131 20.4418 9.41374 20.6081 9.55575 20.8432L10.5739 22.5284ZM12.0679 17.4346C12.4584 17.8251 13.0915 17.8251 13.4821 17.4346L18.6718 12.2448C19.0575 11.8591 19.063 11.2355 18.6841 10.8431L18.4402 10.5905C18.0518 10.1882 17.409 10.1826 17.0137 10.578L13.4738 14.1178C13.0865 14.5051 12.4598 14.5088 12.068 14.1261L10.9736 13.0572C10.5818 12.6745 9.95507 12.6782 9.56779 13.0655L9.3404 13.2929C8.94988 13.6834 8.94988 14.3166 9.3404 14.7071L12.0679 17.4346Z" fill="#FE8C39"/>
</svg>




</g>
<defs>
<filter id="filter0_d_1_942" x="0" y="0" width="310" height="310" filterUnits="userSpaceOnUse" color-interpolation-filters="sRGB">
<feFlood flood-opacity="0" result="BackgroundImageFix"/>
<feColorMatrix in="SourceAlpha" type="matrix" values="0 0 0 0 0 0 0 0 0 0 0 0 0 0 0 0 0 0 127 0" result="hardAlpha"/>
<feOffset/>
<feGaussianBlur stdDeviation="60"/>
<feComposite in2="hardAlpha" operator="out"/>
<feColorMatrix type="matrix" values="0 0 0 0 0.996078 0 0 0 0 0.54902 0 0 0 0 0.223529 0 0 0 0.25 0"/>
<feBlend mode="normal" in2="BackgroundImageFix" result="effect1_dropShadow_1_942"/>
<feBlend mode="normal" in="SourceGraphic" in2="effect1_dropShadow_1_942" result="shape"/>
</filter>
</defs>
</svg>
