<svg width="31" height="38" viewBox="0 0 31 38" fill="none" xmlns="http://www.w3.org/2000/svg">
<path fill-rule="evenodd" clip-rule="evenodd" d="M14.4999 10.8565V3.5H16.4999V25.1648L24.5217 19.349C26.0784 18.2204 26.9999 16.4141 26.9999 14.4914V9H28.9999V15.5117C28.9999 17.4345 28.0784 19.2408 26.5217 20.3694L16.4999 27.6352V35H14.4999V13.3035L6.54267 18.9134C4.94827 20.0374 3.99988 21.8664 3.99988 23.8172V29H1.99988V22.7801C1.99988 20.8294 2.94827 19.0004 4.54267 17.8763L14.4999 10.8565Z" fill="#00B2FF"/>
<path d="M18.4999 3.5C18.4999 5.15685 17.1567 6.5 15.4999 6.5C13.843 6.5 12.4999 5.15685 12.4999 3.5C12.4999 1.84315 13.843 0.5 15.4999 0.5C17.1567 0.5 18.4999 1.84315 18.4999 3.5Z" fill="#00B2FF"/>
<path d="M18.4999 34.5C18.4999 36.1569 17.1567 37.5 15.4999 37.5C13.843 37.5 12.4999 36.1569 12.4999 34.5C12.4999 32.8431 13.843 31.5 15.4999 31.5C17.1567 31.5 18.4999 32.8431 18.4999 34.5Z" fill="#00B2FF"/>
<path d="M2.99988 23.5C4.65673 23.5 5.99988 24.8431 5.99988 26.5C5.99988 28.1569 4.65673 29.5 2.99988 29.5C1.34302 29.5 -0.000121998 28.1569 -0.00012207 26.5C-0.000122143 24.8431 1.34302 23.5 2.99988 23.5Z" fill="#00B2FF"/>
<path d="M27.9999 8.5C29.6567 8.5 30.9999 9.84315 30.9999 11.5C30.9999 13.1569 29.6567 14.5 27.9999 14.5C26.343 14.5 24.9999 13.1569 24.9999 11.5C24.9999 9.84315 26.343 8.5 27.9999 8.5Z" fill="#00B2FF"/>
</svg>
