<svg width="310" height="310" viewBox="0 0 310 310" fill="none" xmlns="http://www.w3.org/2000/svg">
<g filter="url(#filter0_d_1_937)">
<rect x="120" y="120" width="70" height="70" rx="35" fill="white"/>
<rect x="120.5" y="120.5" width="69" height="69" rx="34.5" stroke="#5243FF"/>
</g>

<g transform="translate(137, 143) ">
<svg width="39" height="23" viewBox="0 0 39 23" fill="none" xmlns="http://www.w3.org/2000/svg">
<path d="M9.66107 19.4857C9.39429 19.4857 9.13705 19.4095 8.88933 19.2571L0.600244 13.7714C0.200081 13.5048 0 13.1143 0 12.6C0 12.1048 0.209609 11.7238 0.628827 11.4571L9.40382 5.85714C9.65154 5.70476 9.89926 5.62857 10.147 5.62857C10.5281 5.62857 10.852 5.7619 11.1188 6.02857C11.3856 6.29524 11.519 6.62857 11.519 7.02857C11.519 7.2381 11.4618 7.45714 11.3475 7.68571C11.2331 7.89524 11.0807 8.05714 10.8901 8.17143L3.88729 12.6286L10.4042 16.9714C10.5948 17.1048 10.7472 17.2762 10.8616 17.4857C10.9759 17.6762 11.0331 17.8857 11.0331 18.1143C11.0331 18.4762 10.8901 18.8 10.6043 19.0857C10.3375 19.3524 10.0231 19.4857 9.66107 19.4857Z" fill="#5243FF"/>
<path d="M15.1767 23C14.8147 23 14.5098 22.8857 14.262 22.6571C14.0334 22.4476 13.9191 22.181 13.9191 21.8571C13.9191 21.6095 13.9857 21.3333 14.1191 21.0286L22.6655 0.685714C22.856 0.228571 23.2276 0 23.7802 0C24.1232 0 24.409 0.12381 24.6377 0.371429C24.8854 0.6 25.0093 0.866666 25.0093 1.17143C25.0093 1.3619 24.9235 1.65714 24.752 2.05714L16.2343 22.3714C16.1581 22.5429 16.0151 22.6857 15.8055 22.8C15.615 22.9333 15.4054 23 15.1767 23Z" fill="#5243FF"/>
<path d="M29.3389 19.4857C28.9769 19.4857 28.6529 19.3524 28.3671 19.0857C28.1003 18.8 27.9669 18.4762 27.9669 18.1143C27.9669 17.6381 28.1766 17.2571 28.5958 16.9714L35.1127 12.6286L28.1099 8.17143C27.9193 8.05714 27.7669 7.89524 27.6525 7.68571C27.5382 7.45714 27.481 7.2381 27.481 7.02857C27.481 6.62857 27.6144 6.29524 27.8812 6.02857C28.148 5.7619 28.4719 5.62857 28.853 5.62857C29.1007 5.62857 29.3485 5.70476 29.5962 5.85714L38.3712 11.4571C38.7904 11.7238 39 12.1048 39 12.6C39 13.1143 38.7999 13.5048 38.3998 13.7714L30.1107 19.2571C29.863 19.4095 29.6057 19.4857 29.3389 19.4857Z" fill="#5243FF"/>
</svg>

</g>







<defs>
<filter id="filter0_d_1_937" x="0" y="0" width="310" height="310" filterUnits="userSpaceOnUse" color-interpolation-filters="sRGB">
<feFlood flood-opacity="0" result="BackgroundImageFix"/>
<feColorMatrix in="SourceAlpha" type="matrix" values="0 0 0 0 0 0 0 0 0 0 0 0 0 0 0 0 0 0 127 0" result="hardAlpha"/>
<feOffset/>
<feGaussianBlur stdDeviation="60"/>
<feComposite in2="hardAlpha" operator="out"/>
<feColorMatrix type="matrix" values="0 0 0 0 0.321569 0 0 0 0 0.262745 0 0 0 0 1 0 0 0 0.25 0"/>
<feBlend mode="normal" in2="BackgroundImageFix" result="effect1_dropShadow_1_937"/>
<feBlend mode="normal" in="SourceGraphic" in2="effect1_dropShadow_1_937" result="shape"/>
</filter>
</defs>
</svg>
